<?xml version="1.0" encoding="UTF-8" standalone="no"?>
<svg
   xmlns:dc="http://purl.org/dc/elements/1.1/"
   xmlns:cc="http://creativecommons.org/ns#"
   xmlns:rdf="http://www.w3.org/1999/02/22-rdf-syntax-ns#"
   xmlns:svg="http://www.w3.org/2000/svg"
   xmlns="http://www.w3.org/2000/svg"
   xmlns:sodipodi="http://sodipodi.sourceforge.net/DTD/sodipodi-0.dtd"
   xmlns:inkscape="http://www.inkscape.org/namespaces/inkscape"
   id="Capa_1"
   enable-background="new 0 0 512 512"
   height="512"
   viewBox="0 0 512 512"
   width="512"
   version="1.1"
   sodipodi:docname="superpage.svg"
   inkscape:version="1.0.1 (1.0.1+r74)">
  <metadata
     id="metadata1013">
    <rdf:RDF>
      <cc:Work
         rdf:about="">
        <dc:format>image/svg+xml</dc:format>
        <dc:type
           rdf:resource="http://purl.org/dc/dcmitype/StillImage" />
        <dc:title></dc:title>
      </cc:Work>
    </rdf:RDF>
  </metadata>
  <defs
     id="defs1011" />
  <sodipodi:namedview
     pagecolor="#ffffff"
     bordercolor="#666666"
     borderopacity="1"
     objecttolerance="10"
     gridtolerance="10"
     guidetolerance="10"
     inkscape:pageopacity="0"
     inkscape:pageshadow="2"
     inkscape:window-width="1920"
     inkscape:window-height="1007"
     id="namedview1009"
     showgrid="false"
     inkscape:zoom="0.79687498"
     inkscape:cx="424.82282"
     inkscape:cy="133.90585"
     inkscape:window-x="0"
     inkscape:window-y="0"
     inkscape:window-maximized="1"
     inkscape:current-layer="g1006"
     showguides="true"
     inkscape:guide-bbox="true"
     inkscape:document-rotation="0">
    <sodipodi:guide
       position="301.58708,186.50378"
       orientation="0,-1"
       id="guide1033" />
    <sodipodi:guide
       position="271.29223,199.65778"
       orientation="1,0"
       id="guide1035" />
    <sodipodi:guide
       position="648.34528,125.88475"
       orientation="1,0"
       id="guide1037" />
    <sodipodi:guide
       position="280.27008,55.95527"
       orientation="0,-1"
       id="guide3491" />
    <sodipodi:guide
       position="263.41895,121.66816"
       orientation="0,-1"
       id="guide3493" />
    <sodipodi:guide
       position="166.58824,215.21568"
       orientation="1,0"
       id="guide3495" />
    <sodipodi:guide
       position="375.52942,213.64705"
       orientation="1,0"
       id="guide3497" />
  </sodipodi:namedview>
  <g
     id="g1006"
     transform="translate(1.2022264,-1.4077046)">
    <path
       d="m 169.931,303.52993 39.197,38.208 -9.253,53.951 c -0.965,5.627 1.348,11.315 5.967,14.671 4.62,3.356 10.744,3.799 15.797,1.142 l 48.451,-25.472 48.451,25.472 c 5.083,2.673 11.205,2.194 15.797,-1.142 4.619,-3.356 6.933,-9.043 5.967,-14.671 l -9.253,-53.951 39.197,-38.208 c 4.088,-3.985 5.56,-9.946 3.795,-15.376 -1.764,-5.43 -6.458,-9.388 -12.109,-10.209 l -54.104,-7.861 -24.245,-50.001 c -2.508,-5.171 -7.75,-8.456 -13.497,-8.456 -5.747,0 -10.989,3.284 -13.497,8.456 l -24.245,50.001 -54.103,7.861 c -5.65,0.821 -10.345,4.779 -12.109,10.209 -1.764,5.429 -0.293,11.39 3.796,15.376 z m 74.6,-4.902 c 4.922,-0.715 9.17,-3.824 11.34,-8.3 l 14.218,-29.323 14.218,29.323 c 2.17,4.476 6.418,7.584 11.34,8.3 l 31.896,4.634 -23.08,22.498 c -3.535,3.446 -5.148,8.411 -4.314,13.277 l 5.448,31.768 -28.529,-14.999 c -2.185,-1.149 -4.583,-1.723 -6.98,-1.723 -2.397,0 -4.795,0.574 -6.98,1.723 l -28.527,14.998 5.449,-31.767 c 0.834,-4.866 -0.779,-9.831 -4.314,-13.277 l -23.08,-22.498 z"
       id="path998"
       style="fill:#afe9af" />
    <path
       d="m 165.38601,326.90392 c -8.284,0 -15,6.716 -15,15 v 31 c 0,8.284 6.716,15 15,15 8.284,0 15,-6.716 15,-15 v -31 c 0,-8.284 -6.716,-15 -15,-15 z"
       id="path1002"
       style="fill:#d7f4d7" />
    <path
       d="m 374.32719,326.90392 c -8.284,0 -15,6.716 -15,15 v 31 c 0,8.284 6.716,15 15,15 8.284,0 15,-6.716 15,-15 v -31 c 0,-8.284 -6.716,-15 -15,-15 z"
       id="path1004"
       style="fill:#d7f4d7" />
    <path
       d="m 467.22588,179.26775 c -0.30976,-3.89187 -0.79733,-5.90979 -1.5029,-9.20186 -1.20436,-2.62816 -2.81084,-5.04404 -4.7592,-7.15701 v 0 L 310.67358,9.544464 v 0 C 308.60296,7.556258 306.23551,5.9169224 303.66003,4.68794 300.28384,3.4189153 296.39105,2.2977916 293.1397,1.8762543 H 141.59708 c -41.5015,6e-7 -75.14511,34.3317947 -75.145108,76.6822067 V 436.40873 c 2e-6,42.35041 33.643608,76.6822 75.145108,76.6822 h 250.48369 c 41.5015,0 75.14511,-34.33179 75.14511,-76.6822 V 180.80138 Z M 316.93566,89.038356 381.81094,155.24067 h -39.8269 c -13.83384,1e-5 -25.04838,-11.44393 -25.04838,-25.56074 z M 417.12915,436.40873 c -10e-6,14.1168 -11.21455,25.56073 -25.04838,25.56072 H 141.59708 c -13.83383,1e-5 -25.04837,-11.44392 -25.04838,-25.56072 V 78.558461 c -1e-5,-14.116812 11.21454,-25.56075 25.04838,-25.560744 h 125.24184 v 76.682213 c 0,42.35041 33.64362,76.68221 75.14512,76.6822 h 75.14511 z"
       id="path3450"
       style="fill:#87de87;fill-opacity:1;stroke-width:25.3033"
       sodipodi:nodetypes="ccsccsccssssssccccssccscccccsscc" />
  </g>
</svg>
