<?xml version="1.0" encoding="UTF-8" standalone="no"?>
<svg
   xmlns:dc="http://purl.org/dc/elements/1.1/"
   xmlns:cc="http://creativecommons.org/ns#"
   xmlns:rdf="http://www.w3.org/1999/02/22-rdf-syntax-ns#"
   xmlns:svg="http://www.w3.org/2000/svg"
   xmlns="http://www.w3.org/2000/svg"
   xmlns:sodipodi="http://sodipodi.sourceforge.net/DTD/sodipodi-0.dtd"
   xmlns:inkscape="http://www.inkscape.org/namespaces/inkscape"
   id="Capa_1"
   enable-background="new 0 0 512 512"
   height="512"
   viewBox="0 0 512 512"
   width="512"
   version="1.1"
   sodipodi:docname="superpage.svg"
   inkscape:version="1.0.1 (1.0.1+r74)">
  <metadata
     id="metadata1013">
    <rdf:RDF>
      <cc:Work
         rdf:about="">
        <dc:format>image/svg+xml</dc:format>
        <dc:type
           rdf:resource="http://purl.org/dc/dcmitype/StillImage" />
        <dc:title></dc:title>
      </cc:Work>
    </rdf:RDF>
  </metadata>
  <defs
     id="defs1011" />
  <sodipodi:namedview
     pagecolor="#ffffff"
     bordercolor="#666666"
     borderopacity="1"
     objecttolerance="10"
     gridtolerance="10"
     guidetolerance="10"
     inkscape:pageopacity="0"
     inkscape:pageshadow="2"
     inkscape:window-width="1920"
     inkscape:window-height="1007"
     id="namedview1009"
     showgrid="false"
     inkscape:zoom="1.1269514"
     inkscape:cx="335.95926"
     inkscape:cy="249.6447"
     inkscape:window-x="0"
     inkscape:window-y="0"
     inkscape:window-maximized="1"
     inkscape:current-layer="g1006"
     showguides="true"
     inkscape:guide-bbox="true">
    <sodipodi:guide
       position="132.39216,225.2549"
       orientation="0,-1"
       id="guide1033" />
    <sodipodi:guide
       position="245.79586,324.32554"
       orientation="1,0"
       id="guide1035" />
    <sodipodi:guide
       position="327.43203,268.42251"
       orientation="1,0"
       id="guide1037" />
  </sodipodi:namedview>
  <g
     id="g1006">
    <path
       d="m436 0h-315c-33.084 0-60 26.916-60 60v392c0 33.084 26.916 60 60 60h315c8.284 0 15-6.716 15-15 0-7.654 0-462.23 0-482 0-8.284-6.716-15-15-15zm-15 392h-270v-362h270zm-300-362v362c-10.925 0-21.167 2.949-30 8.072v-340.072c0-16.542 13.458-30 30-30zm300 452h-300c-16.542 0-30-13.458-30-30s13.458-30 30-30h300z"
       id="path996"
       style="fill:#87de87" />
    <path
       d="m185.53 152.556 39.197 38.208-9.253 53.951c-.965 5.627 1.348 11.315 5.967 14.671 4.62 3.356 10.744 3.799 15.797 1.142l48.451-25.472 48.451 25.472c5.083 2.673 11.205 2.194 15.797-1.142 4.619-3.356 6.933-9.043 5.967-14.671l-9.253-53.951 39.197-38.208c4.088-3.985 5.56-9.946 3.795-15.376-1.764-5.43-6.458-9.388-12.109-10.209l-54.104-7.861-24.245-50.001c-2.508-5.171-7.75-8.456-13.497-8.456s-10.989 3.284-13.497 8.456l-24.245 50.001-54.103 7.861c-5.65.821-10.345 4.779-12.109 10.209-1.764 5.429-.293 11.39 3.796 15.376zm74.6-4.902c4.922-.715 9.17-3.824 11.34-8.3l14.218-29.323 14.218 29.323c2.17 4.476 6.418 7.584 11.34 8.3l31.896 4.634-23.08 22.498c-3.535 3.446-5.148 8.411-4.314 13.277l5.448 31.768-28.529-14.999c-2.185-1.149-4.583-1.723-6.98-1.723s-4.795.574-6.98 1.723l-28.527 14.998 5.449-31.767c.834-4.866-.779-9.831-4.314-13.277l-23.08-22.498z"
       id="path998"
       style="fill:#afe9af" />
    <path
       d="m 286.42398,263.3223 c -8.284,0 -15,6.716 -15,15 v 61 c 0,8.284 6.716,15 15,15 8.284,0 15,-6.716 15,-15 v -61 c 0,-8.284 -6.716,-15 -15,-15 z"
       id="path1000"
       style="fill:#d7f4d7" />
    <path
       d="m 230.40116,286.7451 c -8.284,0 -15,6.716 -15,15 v 31 c 0,8.284 6.716,15 15,15 8.284,0 15,-6.716 15,-15 v -31 c 0,-8.284 -6.716,-15 -15,-15 z"
       id="path1002"
       style="fill:#d7f4d7" />
    <path
       d="m 341.62997,286.7451 c -8.284,0 -15,6.716 -15,15 v 31 c 0,8.284 6.716,15 15,15 8.284,0 15,-6.716 15,-15 v -31 c 0,-8.284 -6.716,-15 -15,-15 z"
       id="path1004"
       style="fill:#d7f4d7" />
  </g>
</svg>
